<?xml version="1.0" encoding="utf-8"?>
<!-- Generator: Adobe Illustrator 26.0.0, SVG Export Plug-In . SVG Version: 6.00 Build 0)  -->
<svg version="1.1" id="Calque_1" xmlns="http://www.w3.org/2000/svg" xmlns:xlink="http://www.w3.org/1999/xlink" x="0px" y="0px"
	 viewBox="0 0 640 480" style="enable-background:new 0 0 640 480;" xml:space="preserve">
<g>
	<g>
		<g>
			<g>
				<path d="M476.62,124.41v-7.22h-66.41c-1.82,6.37-3.12,11.52-3.91,15.43c-1.56,8.07-2.41,16.33-2.53,24.8l-0.39,26.76
					c-0.25,18.36-3.42,30.59-9.52,36.72c-6.1,6.11-17.52,9.18-34.27,9.18h-58.75V117.19h-58.79v237.85H164v50h78.05v0.04h137.7
					c19.68-0.39,34.82-2.87,45.42-7.43c10.6-4.56,19.59-11.26,26.95-20.11c6.09-7.3,10.92-15.37,14.48-24.22
					c3.55-8.86,5.33-18.95,5.33-30.28c0-13.67-3.45-27.11-10.35-40.33c-6.91-13.21-18.3-22.56-34.18-28.02
					c13.28-5.35,22.68-12.93,28.22-22.76c5.53-9.83,8.3-24.84,8.3-45.02v-19.33c0-13.16,0.53-22.07,1.59-26.76
					C467.1,133.4,470.8,127.93,476.62,124.41z M411.58,314.84c0,17.45-5.51,29.17-16.51,35.16c-6.19,3.38-15.46,5.08-27.82,5.08
					h-66.41v-77.35h64.74c12.86,0,22.5,1.56,28.93,4.69C405.89,287.89,411.58,298.69,411.58,314.84z"/>
			</g>
		</g>
	</g>
</g>
<g>
	<g>
		<g>
			<rect x="289.84" y="172.96" width="1.16" height="0.04"/>
		</g>
	</g>
</g>
</svg>
