<?xml version="1.0" encoding="utf-8"?>
<!-- Generator: Adobe Illustrator 26.0.0, SVG Export Plug-In . SVG Version: 6.00 Build 0)  -->
<svg version="1.1" id="Calque_1" xmlns="http://www.w3.org/2000/svg" xmlns:xlink="http://www.w3.org/1999/xlink" x="0px" y="0px"
	 viewBox="0 0 640 480" style="enable-background:new 0 0 640 480;" xml:space="preserve">
<style type="text/css">
	.st0{fill:#00FFFF;}
	.st1{fill:#FF001D;}
</style>
<g>
	<g>
		<g>
			<path class="st0" d="M460.72,389.52c-1.06-4.68-1.59-13.56-1.59-26.68v-19.27c0-20.12-2.77-35.08-8.3-44.88
				c-5.54-9.8-14.94-17.36-28.22-22.69c15.88-5.44,27.27-14.76,34.18-27.93c6.9-13.18,10.35-26.58,10.35-40.21
				c0-11.29-1.78-21.35-5.33-30.19c-3.56-8.82-8.39-16.87-14.48-24.15c-7.36-8.82-16.35-15.5-26.95-20.05
				c-10.6-4.55-25.74-7.02-45.42-7.41h-137.7v0.04h-78.05v49.85h78.05v237.11h58.79V300.54h58.75c16.75,0,28.17,3.06,34.27,9.15
				c6.1,6.11,9.27,18.3,9.52,36.61l0.39,26.68c0.12,8.44,0.97,16.68,2.53,24.72c0.79,3.9,2.09,9.03,3.91,15.38h66.41v-7.2
				C466.01,402.37,462.31,396.92,460.72,389.52z M389.72,248.36c-6.43,3.12-16.07,4.68-28.93,4.68h-64.74v-77.11h66.41
				c12.36,0,21.63,1.69,27.82,5.06c11,5.97,16.51,17.66,16.51,35.05C406.79,232.14,401.1,242.91,389.72,248.36z"/>
		</g>
	</g>
</g>
<g>
	<g>
		<g>
			<path class="st1" d="M448.72,382.22c-1.06-4.69-1.59-13.6-1.59-26.76v-19.33c0-20.18-2.77-35.19-8.3-45.02
				c-5.54-9.83-14.94-17.41-28.22-22.76c15.88-5.46,27.27-14.81,34.18-28.02c6.9-13.22,10.35-26.66,10.35-40.33
				c0-11.33-1.78-21.42-5.33-30.28c-3.56-8.85-8.39-16.92-14.48-24.22c-7.36-8.85-16.35-15.55-26.95-20.11
				c-10.6-4.56-25.74-7.04-45.42-7.43h-137.7V118h-78.05v50h78.05v237.85h58.79V292.96h58.75c16.75,0,28.17,3.07,34.27,9.18
				c6.1,6.13,9.27,18.36,9.52,36.72l0.39,26.76c0.12,8.47,0.97,16.73,2.53,24.8c0.79,3.91,2.09,9.06,3.91,15.43h66.41v-7.22
				C454.01,395.11,450.31,389.64,448.72,382.22z M377.72,240.62c-6.43,3.13-16.07,4.69-28.93,4.69h-64.74v-77.35h66.41
				c12.36,0,21.63,1.7,27.82,5.08c11,5.99,16.51,17.71,16.51,35.16C394.79,224.35,389.1,235.15,377.72,240.62z"/>
		</g>
	</g>
</g>
<g>
	<g>
		<g>
			<path d="M454.51,387.22c-1.06-4.69-1.59-13.6-1.59-26.76v-19.33c0-20.18-2.77-35.19-8.3-45.02
				c-5.54-9.83-14.94-17.41-28.22-22.76c15.88-5.46,27.27-14.81,34.18-28.02c6.9-13.22,10.35-26.66,10.35-40.33
				c0-11.33-1.78-21.42-5.33-30.28c-3.56-8.85-8.39-16.92-14.48-24.22c-7.36-8.85-16.35-15.55-26.95-20.11
				c-10.6-4.56-25.74-7.04-45.42-7.43h-137.7V123H153v50h78.05v237.85h58.79V297.96h58.75c16.75,0,28.17,3.07,34.27,9.18
				c6.1,6.13,9.27,18.36,9.52,36.72l0.39,26.76c0.12,8.47,0.97,16.73,2.53,24.8c0.79,3.91,2.09,9.06,3.91,15.43h66.41v-7.22
				C459.8,400.11,456.1,394.64,454.51,387.22z M383.51,245.62c-6.43,3.13-16.07,4.69-28.93,4.69h-64.74v-77.35h66.41
				c12.36,0,21.63,1.7,27.82,5.08c11,5.99,16.51,17.71,16.51,35.16C400.58,229.35,394.89,240.15,383.51,245.62z"/>
		</g>
	</g>
</g>
<g>
	<g>
		<g>
			<rect x="289.84" y="172.96" width="1.16" height="0.04"/>
		</g>
	</g>
</g>
</svg>
